<?xml version="1.0" standalone="no"?>
<!DOCTYPE svg PUBLIC "-//W3C//DTD SVG 20010904//EN"
 "http://www.w3.org/TR/2001/REC-SVG-20010904/DTD/svg10.dtd">
<svg version="1.0" xmlns="http://www.w3.org/2000/svg"
 width="3060.000000pt" height="3078.000000pt" viewBox="0 0 3060.000000 3078.000000"
 preserveAspectRatio="xMidYMid meet">

<g transform="translate(0.000000,3078.000000) scale(0.100000,-0.100000)"
fill="#297ea3" stroke="none">
<path d="M9021 30773 c0 -5 159 -135 352 -290 633 -508 2222 -1791 4934 -3984
l2667 -2155 590 478 c325 263 594 478 597 478 4 0 85 -63 180 -140 96 -77 177
-138 181 -137 6 2 458 367 2962 2390 682 551 1244 1002 1251 1002 6 0 310
-242 675 -537 960 -775 2691 -2174 2926 -2364 l201 -162 200 161 c110 89 435
352 722 584 l523 423 201 -163 c1073 -868 1783 -1441 1797 -1449 14 -9 69 32
318 233 l302 244 0 2697 0 2698 -10790 0 c-5934 0 -10790 -3 -10789 -7z"/>
<path d="M11348 5124 c-480 -388 -1436 -1161 -2125 -1717 -689 -557 -1256
-1012 -1261 -1012 -5 0 -872 698 -1927 1550 -1054 853 -1918 1550 -1920 1550
-5 0 -4055 -3273 -4087 -3303 l-28 -26 0 -1076 0 -1077 4557 -6 c2507 -3 6879
-3 9715 1 l5157 7 -3316 2680 c-3456 2793 -3880 3135 -3887 3135 -2 0 -397
-318 -878 -706z"/>
</g>
</svg>
