<svg width="222" height="213" viewBox="0 0 222 213" fill="none" xmlns="http://www.w3.org/2000/svg">
<g clip-path="url(#clip0_45_41)">
<path d="M222 0H0V213H222V0Z" fill="#F07575"/>
<mask id="mask0_45_41" style="mask-type:luminance" maskUnits="userSpaceOnUse" x="0" y="0" width="221" height="212">
<path d="M7.39999 51.83H0.73999V58.22H7.39999V51.83Z" fill="white"/>
<path d="M7.39999 58.22H0.73999V64.61H7.39999V58.22Z" fill="white"/>
<path d="M7.39999 64.61H0.73999V71H7.39999V64.61Z" fill="white"/>
<path d="M7.39999 77.39H0.73999V83.78H7.39999V77.39Z" fill="white"/>
<path d="M7.39999 83.7799H0.73999V90.1699H7.39999V83.7799Z" fill="white"/>
<path d="M7.39999 90.1699H0.73999V96.5599H7.39999V90.1699Z" fill="white"/>
<path d="M7.39999 115.73H0.73999V122.12H7.39999V115.73Z" fill="white"/>
<path d="M7.39999 141.29H0.73999V147.68H7.39999V141.29Z" fill="white"/>
<path d="M7.39999 147.68H0.73999V154.07H7.39999V147.68Z" fill="white"/>
<path d="M7.39999 154.07H0.73999V160.46H7.39999V154.07Z" fill="white"/>
<path d="M14.06 58.22H7.39996V64.61H14.06V58.22Z" fill="white"/>
<path d="M14.06 64.61H7.39996V71H14.06V64.61Z" fill="white"/>
<path d="M14.06 83.7799H7.39996V90.1699H14.06V83.7799Z" fill="white"/>
<path d="M14.06 90.1699H7.39996V96.5599H14.06V90.1699Z" fill="white"/>
<path d="M14.06 102.95H7.39996V109.34H14.06V102.95Z" fill="white"/>
<path d="M14.06 109.34H7.39996V115.73H14.06V109.34Z" fill="white"/>
<path d="M14.06 128.51H7.39996V134.9H14.06V128.51Z" fill="white"/>
<path d="M14.06 134.9H7.39996V141.29H14.06V134.9Z" fill="white"/>
<path d="M14.06 141.29H7.39996V147.68H14.06V141.29Z" fill="white"/>
<path d="M14.06 147.68H7.39996V154.07H14.06V147.68Z" fill="white"/>
<path d="M14.06 154.07H7.39996V160.46H14.06V154.07Z" fill="white"/>
<path d="M20.72 51.83H14.06V58.22H20.72V51.83Z" fill="white"/>
<path d="M20.72 58.22H14.06V64.61H20.72V58.22Z" fill="white"/>
<path d="M20.72 83.7799H14.06V90.1699H20.72V83.7799Z" fill="white"/>
<path d="M20.72 102.95H14.06V109.34H20.72V102.95Z" fill="white"/>
<path d="M20.72 109.34H14.06V115.73H20.72V109.34Z" fill="white"/>
<path d="M20.72 128.51H14.06V134.9H20.72V128.51Z" fill="white"/>
<path d="M20.72 154.07H14.06V160.46H20.72V154.07Z" fill="white"/>
<path d="M27.38 51.83H20.72V58.22H27.38V51.83Z" fill="white"/>
<path d="M27.38 58.22H20.72V64.61H27.38V58.22Z" fill="white"/>
<path d="M27.38 71H20.72V77.39H27.38V71Z" fill="white"/>
<path d="M27.38 102.95H20.72V109.34H27.38V102.95Z" fill="white"/>
<path d="M27.38 109.34H20.72V115.73H27.38V109.34Z" fill="white"/>
<path d="M27.38 122.12H20.72V128.51H27.38V122.12Z" fill="white"/>
<path d="M27.38 134.9H20.72V141.29H27.38V134.9Z" fill="white"/>
<path d="M27.38 147.68H20.72V154.07H27.38V147.68Z" fill="white"/>
<path d="M34.04 64.61H27.38V71H34.04V64.61Z" fill="white"/>
<path d="M34.04 77.39H27.38V83.78H34.04V77.39Z" fill="white"/>
<path d="M34.04 96.5599H27.38V102.95H34.04V96.5599Z" fill="white"/>
<path d="M34.04 102.95H27.38V109.34H34.04V102.95Z" fill="white"/>
<path d="M34.04 109.34H27.38V115.73H34.04V109.34Z" fill="white"/>
<path d="M34.04 122.12H27.38V128.51H34.04V122.12Z" fill="white"/>
<path d="M34.04 134.9H27.38V141.29H34.04V134.9Z" fill="white"/>
<path d="M34.04 141.29H27.38V147.68H34.04V141.29Z" fill="white"/>
<path d="M40.7 51.83H34.04V58.22H40.7V51.83Z" fill="white"/>
<path d="M40.7 58.22H34.04V64.61H40.7V58.22Z" fill="white"/>
<path d="M40.7 71H34.04V77.39H40.7V71Z" fill="white"/>
<path d="M40.7 77.39H34.04V83.78H40.7V77.39Z" fill="white"/>
<path d="M40.7 83.7799H34.04V90.1699H40.7V83.7799Z" fill="white"/>
<path d="M40.7 90.1699H34.04V96.5599H40.7V90.1699Z" fill="white"/>
<path d="M40.7 96.5599H34.04V102.95H40.7V96.5599Z" fill="white"/>
<path d="M40.7 115.73H34.04V122.12H40.7V115.73Z" fill="white"/>
<path d="M40.7 128.51H34.04V134.9H40.7V128.51Z" fill="white"/>
<path d="M40.7 141.29H34.04V147.68H40.7V141.29Z" fill="white"/>
<path d="M40.7 147.68H34.04V154.07H40.7V147.68Z" fill="white"/>
<path d="M47.36 51.83H40.7V58.22H47.36V51.83Z" fill="white"/>
<path d="M47.36 64.61H40.7V71H47.36V64.61Z" fill="white"/>
<path d="M47.36 77.39H40.7V83.78H47.36V77.39Z" fill="white"/>
<path d="M47.36 90.1699H40.7V96.5599H47.36V90.1699Z" fill="white"/>
<path d="M47.36 102.95H40.7V109.34H47.36V102.95Z" fill="white"/>
<path d="M47.36 115.73H40.7V122.12H47.36V115.73Z" fill="white"/>
<path d="M47.36 128.51H40.7V134.9H47.36V128.51Z" fill="white"/>
<path d="M47.36 141.29H40.7V147.68H47.36V141.29Z" fill="white"/>
<path d="M47.36 154.07H40.7V160.46H47.36V154.07Z" fill="white"/>
<path d="M54.02 51.83H47.36V58.22H54.02V51.83Z" fill="white"/>
<path d="M54.02 64.61H47.36V71H54.02V64.61Z" fill="white"/>
<path d="M54.02 71H47.36V77.39H54.02V71Z" fill="white"/>
<path d="M54.02 77.39H47.36V83.78H54.02V77.39Z" fill="white"/>
<path d="M54.02 90.1699H47.36V96.5599H54.02V90.1699Z" fill="white"/>
<path d="M54.02 96.5599H47.36V102.95H54.02V96.5599Z" fill="white"/>
<path d="M54.02 109.34H47.36V115.73H54.02V109.34Z" fill="white"/>
<path d="M54.02 122.12H47.36V128.51H54.02V122.12Z" fill="white"/>
<path d="M54.02 128.51H47.36V134.9H54.02V128.51Z" fill="white"/>
<path d="M54.02 134.9H47.36V141.29H54.02V134.9Z" fill="white"/>
<path d="M54.02 141.29H47.36V147.68H54.02V141.29Z" fill="white"/>
<path d="M54.02 154.07H47.36V160.46H54.02V154.07Z" fill="white"/>
<path d="M60.68 7.09998H54.02V13.49H60.68V7.09998Z" fill="white"/>
<path d="M60.68 19.88H54.02V26.27H60.68V19.88Z" fill="white"/>
<path d="M60.68 32.6599H54.02V39.0499H60.68V32.6599Z" fill="white"/>
<path d="M60.68 39.0499H54.02V45.4399H60.68V39.0499Z" fill="white"/>
<path d="M60.68 45.4399H54.02V51.8299H60.68V45.4399Z" fill="white"/>
<path d="M60.68 51.83H54.02V58.22H60.68V51.83Z" fill="white"/>
<path d="M60.68 64.61H54.02V71H60.68V64.61Z" fill="white"/>
<path d="M60.68 71H54.02V77.39H60.68V71Z" fill="white"/>
<path d="M60.68 83.7799H54.02V90.1699H60.68V83.7799Z" fill="white"/>
<path d="M60.68 90.1699H54.02V96.5599H60.68V90.1699Z" fill="white"/>
<path d="M60.68 102.95H54.02V109.34H60.68V102.95Z" fill="white"/>
<path d="M60.68 109.34H54.02V115.73H60.68V109.34Z" fill="white"/>
<path d="M60.68 122.12H54.02V128.51H60.68V122.12Z" fill="white"/>
<path d="M60.68 134.9H54.02V141.29H60.68V134.9Z" fill="white"/>
<path d="M60.68 160.46H54.02V166.85H60.68V160.46Z" fill="white"/>
<path d="M60.68 166.85H54.02V173.24H60.68V166.85Z" fill="white"/>
<path d="M60.68 173.24H54.02V179.63H60.68V173.24Z" fill="white"/>
<path d="M60.68 186.02H54.02V192.41H60.68V186.02Z" fill="white"/>
<path d="M60.68 192.41H54.02V198.8H60.68V192.41Z" fill="white"/>
<path d="M60.68 205.19H54.02V211.58H60.68V205.19Z" fill="white"/>
<path d="M67.34 7.09998H60.68V13.49H67.34V7.09998Z" fill="white"/>
<path d="M67.34 13.49H60.68V19.88H67.34V13.49Z" fill="white"/>
<path d="M67.34 45.4399H60.68V51.8299H67.34V45.4399Z" fill="white"/>
<path d="M67.34 58.22H60.68V64.61H67.34V58.22Z" fill="white"/>
<path d="M67.34 71H60.68V77.39H67.34V71Z" fill="white"/>
<path d="M67.34 90.1699H60.68V96.5599H67.34V90.1699Z" fill="white"/>
<path d="M67.34 115.73H60.68V122.12H67.34V115.73Z" fill="white"/>
<path d="M67.34 128.51H60.68V134.9H67.34V128.51Z" fill="white"/>
<path d="M67.34 154.07H60.68V160.46H67.34V154.07Z" fill="white"/>
<path d="M67.34 160.46H60.68V166.85H67.34V160.46Z" fill="white"/>
<path d="M67.34 166.85H60.68V173.24H67.34V166.85Z" fill="white"/>
<path d="M67.34 173.24H60.68V179.63H67.34V173.24Z" fill="white"/>
<path d="M67.34 205.19H60.68V211.58H67.34V205.19Z" fill="white"/>
<path d="M74 13.49H67.34V19.88H74V13.49Z" fill="white"/>
<path d="M74 39.0499H67.34V45.4399H74V39.0499Z" fill="white"/>
<path d="M74 45.4399H67.34V51.8299H74V45.4399Z" fill="white"/>
<path d="M74 51.83H67.34V58.22H74V51.83Z" fill="white"/>
<path d="M74 58.22H67.34V64.61H74V58.22Z" fill="white"/>
<path d="M74 71H67.34V77.39H74V71Z" fill="white"/>
<path d="M74 109.34H67.34V115.73H74V109.34Z" fill="white"/>
<path d="M74 122.12H67.34V128.51H74V122.12Z" fill="white"/>
<path d="M74 134.9H67.34V141.29H74V134.9Z" fill="white"/>
<path d="M74 141.29H67.34V147.68H74V141.29Z" fill="white"/>
<path d="M74 166.85H67.34V173.24H74V166.85Z" fill="white"/>
<path d="M74 173.24H67.34V179.63H74V173.24Z" fill="white"/>
<path d="M74 179.63H67.34V186.02H74V179.63Z" fill="white"/>
<path d="M74 192.41H67.34V198.8H74V192.41Z" fill="white"/>
<path d="M74 205.19H67.34V211.58H74V205.19Z" fill="white"/>
<path d="M80.66 0.709961H74V7.09996H80.66V0.709961Z" fill="white"/>
<path d="M80.66 13.49H74V19.88H80.66V13.49Z" fill="white"/>
<path d="M80.66 19.88H74V26.27H80.66V19.88Z" fill="white"/>
<path d="M80.66 90.1699H74V96.5599H80.66V90.1699Z" fill="white"/>
<path d="M80.66 96.5599H74V102.95H80.66V96.5599Z" fill="white"/>
<path d="M80.66 102.95H74V109.34H80.66V102.95Z" fill="white"/>
<path d="M80.66 109.34H74V115.73H80.66V109.34Z" fill="white"/>
<path d="M80.66 154.07H74V160.46H80.66V154.07Z" fill="white"/>
<path d="M80.66 160.46H74V166.85H80.66V160.46Z" fill="white"/>
<path d="M80.66 179.63H74V186.02H80.66V179.63Z" fill="white"/>
<path d="M80.66 186.02H74V192.41H80.66V186.02Z" fill="white"/>
<path d="M80.66 205.19H74V211.58H80.66V205.19Z" fill="white"/>
<path d="M87.32 0.709961H80.66V7.09996H87.32V0.709961Z" fill="white"/>
<path d="M87.32 19.88H80.66V26.27H87.32V19.88Z" fill="white"/>
<path d="M87.32 26.27H80.66V32.66H87.32V26.27Z" fill="white"/>
<path d="M87.32 39.0499H80.66V45.4399H87.32V39.0499Z" fill="white"/>
<path d="M87.32 45.4399H80.66V51.8299H87.32V45.4399Z" fill="white"/>
<path d="M87.32 77.39H80.66V83.78H87.32V77.39Z" fill="white"/>
<path d="M87.32 83.7799H80.66V90.1699H87.32V83.7799Z" fill="white"/>
<path d="M87.32 96.5599H80.66V102.95H87.32V96.5599Z" fill="white"/>
<path d="M87.32 102.95H80.66V109.34H87.32V102.95Z" fill="white"/>
<path d="M87.32 122.12H80.66V128.51H87.32V122.12Z" fill="white"/>
<path d="M87.32 147.68H80.66V154.07H87.32V147.68Z" fill="white"/>
<path d="M87.32 154.07H80.66V160.46H87.32V154.07Z" fill="white"/>
<path d="M87.32 160.46H80.66V166.85H87.32V160.46Z" fill="white"/>
<path d="M87.32 166.85H80.66V173.24H87.32V166.85Z" fill="white"/>
<path d="M87.32 173.24H80.66V179.63H87.32V173.24Z" fill="white"/>
<path d="M87.32 186.02H80.66V192.41H87.32V186.02Z" fill="white"/>
<path d="M87.32 205.19H80.66V211.58H87.32V205.19Z" fill="white"/>
<path d="M93.98 0.709961H87.32V7.09996H93.98V0.709961Z" fill="white"/>
<path d="M93.98 13.49H87.32V19.88H93.98V13.49Z" fill="white"/>
<path d="M93.98 32.6599H87.32V39.0499H93.98V32.6599Z" fill="white"/>
<path d="M93.98 51.83H87.32V58.22H93.98V51.83Z" fill="white"/>
<path d="M93.98 77.39H87.32V83.78H93.98V77.39Z" fill="white"/>
<path d="M93.98 90.1699H87.32V96.5599H93.98V90.1699Z" fill="white"/>
<path d="M93.98 134.9H87.32V141.29H93.98V134.9Z" fill="white"/>
<path d="M93.98 141.29H87.32V147.68H93.98V141.29Z" fill="white"/>
<path d="M93.98 147.68H87.32V154.07H93.98V147.68Z" fill="white"/>
<path d="M93.98 160.46H87.32V166.85H93.98V160.46Z" fill="white"/>
<path d="M93.98 173.24H87.32V179.63H93.98V173.24Z" fill="white"/>
<path d="M93.98 179.63H87.32V186.02H93.98V179.63Z" fill="white"/>
<path d="M93.98 186.02H87.32V192.41H93.98V186.02Z" fill="white"/>
<path d="M93.98 192.41H87.32V198.8H93.98V192.41Z" fill="white"/>
<path d="M93.98 198.8H87.32V205.19H93.98V198.8Z" fill="white"/>
<path d="M93.98 205.19H87.32V211.58H93.98V205.19Z" fill="white"/>
<path d="M100.64 0.709961H93.98V7.09996H100.64V0.709961Z" fill="white"/>
<path d="M100.64 7.09998H93.98V13.49H100.64V7.09998Z" fill="white"/>
<path d="M100.64 19.88H93.98V26.27H100.64V19.88Z" fill="white"/>
<path d="M100.64 39.0499H93.98V45.4399H100.64V39.0499Z" fill="white"/>
<path d="M100.64 51.83H93.98V58.22H100.64V51.83Z" fill="white"/>
<path d="M100.64 96.5599H93.98V102.95H100.64V96.5599Z" fill="white"/>
<path d="M100.64 128.51H93.98V134.9H100.64V128.51Z" fill="white"/>
<path d="M100.64 134.9H93.98V141.29H100.64V134.9Z" fill="white"/>
<path d="M100.64 147.68H93.98V154.07H100.64V147.68Z" fill="white"/>
<path d="M100.64 160.46H93.98V166.85H100.64V160.46Z" fill="white"/>
<path d="M100.64 166.85H93.98V173.24H100.64V166.85Z" fill="white"/>
<path d="M100.64 173.24H93.98V179.63H100.64V173.24Z" fill="white"/>
<path d="M100.64 179.63H93.98V186.02H100.64V179.63Z" fill="white"/>
<path d="M100.64 186.02H93.98V192.41H100.64V186.02Z" fill="white"/>
<path d="M100.64 198.8H93.98V205.19H100.64V198.8Z" fill="white"/>
<path d="M107.3 7.09998H100.64V13.49H107.3V7.09998Z" fill="white"/>
<path d="M107.3 13.49H100.64V19.88H107.3V13.49Z" fill="white"/>
<path d="M107.3 26.27H100.64V32.66H107.3V26.27Z" fill="white"/>
<path d="M107.3 32.6599H100.64V39.0499H107.3V32.6599Z" fill="white"/>
<path d="M107.3 45.4399H100.64V51.8299H107.3V45.4399Z" fill="white"/>
<path d="M107.3 64.61H100.64V71H107.3V64.61Z" fill="white"/>
<path d="M107.3 71H100.64V77.39H107.3V71Z" fill="white"/>
<path d="M107.3 77.39H100.64V83.78H107.3V77.39Z" fill="white"/>
<path d="M107.3 90.1699H100.64V96.5599H107.3V90.1699Z" fill="white"/>
<path d="M107.3 102.95H100.64V109.34H107.3V102.95Z" fill="white"/>
<path d="M107.3 115.73H100.64V122.12H107.3V115.73Z" fill="white"/>
<path d="M107.3 122.12H100.64V128.51H107.3V122.12Z" fill="white"/>
<path d="M107.3 134.9H100.64V141.29H107.3V134.9Z" fill="white"/>
<path d="M107.3 141.29H100.64V147.68H107.3V141.29Z" fill="white"/>
<path d="M107.3 154.07H100.64V160.46H107.3V154.07Z" fill="white"/>
<path d="M107.3 166.85H100.64V173.24H107.3V166.85Z" fill="white"/>
<path d="M107.3 173.24H100.64V179.63H107.3V173.24Z" fill="white"/>
<path d="M107.3 198.8H100.64V205.19H107.3V198.8Z" fill="white"/>
<path d="M113.96 0.709961H107.3V7.09996H113.96V0.709961Z" fill="white"/>
<path d="M113.96 32.6599H107.3V39.0499H113.96V32.6599Z" fill="white"/>
<path d="M113.96 39.0499H107.3V45.4399H113.96V39.0499Z" fill="white"/>
<path d="M113.96 51.83H107.3V58.22H113.96V51.83Z" fill="white"/>
<path d="M113.96 58.22H107.3V64.61H113.96V58.22Z" fill="white"/>
<path d="M113.96 122.12H107.3V128.51H113.96V122.12Z" fill="white"/>
<path d="M113.96 128.51H107.3V134.9H113.96V128.51Z" fill="white"/>
<path d="M113.96 134.9H107.3V141.29H113.96V134.9Z" fill="white"/>
<path d="M113.96 141.29H107.3V147.68H113.96V141.29Z" fill="white"/>
<path d="M113.96 154.07H107.3V160.46H113.96V154.07Z" fill="white"/>
<path d="M113.96 166.85H107.3V173.24H113.96V166.85Z" fill="white"/>
<path d="M113.96 179.63H107.3V186.02H113.96V179.63Z" fill="white"/>
<path d="M113.96 198.8H107.3V205.19H113.96V198.8Z" fill="white"/>
<path d="M120.62 0.709961H113.96V7.09996H120.62V0.709961Z" fill="white"/>
<path d="M120.62 13.49H113.96V19.88H120.62V13.49Z" fill="white"/>
<path d="M120.62 26.27H113.96V32.66H120.62V26.27Z" fill="white"/>
<path d="M120.62 32.6599H113.96V39.0499H120.62V32.6599Z" fill="white"/>
<path d="M120.62 51.83H113.96V58.22H120.62V51.83Z" fill="white"/>
<path d="M120.62 58.22H113.96V64.61H120.62V58.22Z" fill="white"/>
<path d="M120.62 64.61H113.96V71H120.62V64.61Z" fill="white"/>
<path d="M120.62 71H113.96V77.39H120.62V71Z" fill="white"/>
<path d="M120.62 109.34H113.96V115.73H120.62V109.34Z" fill="white"/>
<path d="M120.62 115.73H113.96V122.12H120.62V115.73Z" fill="white"/>
<path d="M120.62 134.9H113.96V141.29H120.62V134.9Z" fill="white"/>
<path d="M120.62 147.68H113.96V154.07H120.62V147.68Z" fill="white"/>
<path d="M120.62 154.07H113.96V160.46H120.62V154.07Z" fill="white"/>
<path d="M120.62 160.46H113.96V166.85H120.62V160.46Z" fill="white"/>
<path d="M120.62 173.24H113.96V179.63H120.62V173.24Z" fill="white"/>
<path d="M120.62 186.02H113.96V192.41H120.62V186.02Z" fill="white"/>
<path d="M120.62 198.8H113.96V205.19H120.62V198.8Z" fill="white"/>
<path d="M127.28 7.09998H120.62V13.49H127.28V7.09998Z" fill="white"/>
<path d="M127.28 13.49H120.62V19.88H127.28V13.49Z" fill="white"/>
<path d="M127.28 32.6599H120.62V39.0499H127.28V32.6599Z" fill="white"/>
<path d="M127.28 39.0499H120.62V45.4399H127.28V39.0499Z" fill="white"/>
<path d="M127.28 45.4399H120.62V51.8299H127.28V45.4399Z" fill="white"/>
<path d="M127.28 83.7799H120.62V90.1699H127.28V83.7799Z" fill="white"/>
<path d="M127.28 90.1699H120.62V96.5599H127.28V90.1699Z" fill="white"/>
<path d="M127.28 96.5599H120.62V102.95H127.28V96.5599Z" fill="white"/>
<path d="M127.28 109.34H120.62V115.73H127.28V109.34Z" fill="white"/>
<path d="M127.28 115.73H120.62V122.12H127.28V115.73Z" fill="white"/>
<path d="M127.28 128.51H120.62V134.9H127.28V128.51Z" fill="white"/>
<path d="M127.28 141.29H120.62V147.68H127.28V141.29Z" fill="white"/>
<path d="M127.28 154.07H120.62V160.46H127.28V154.07Z" fill="white"/>
<path d="M127.28 192.41H120.62V198.8H127.28V192.41Z" fill="white"/>
<path d="M127.28 198.8H120.62V205.19H127.28V198.8Z" fill="white"/>
<path d="M127.28 205.19H120.62V211.58H127.28V205.19Z" fill="white"/>
<path d="M133.94 13.49H127.28V19.88H133.94V13.49Z" fill="white"/>
<path d="M133.94 19.88H127.28V26.27H133.94V19.88Z" fill="white"/>
<path d="M133.94 45.4399H127.28V51.8299H133.94V45.4399Z" fill="white"/>
<path d="M133.94 51.83H127.28V58.22H133.94V51.83Z" fill="white"/>
<path d="M133.94 64.61H127.28V71H133.94V64.61Z" fill="white"/>
<path d="M133.94 71H127.28V77.39H133.94V71Z" fill="white"/>
<path d="M133.94 83.7799H127.28V90.1699H133.94V83.7799Z" fill="white"/>
<path d="M133.94 96.5599H127.28V102.95H133.94V96.5599Z" fill="white"/>
<path d="M133.94 102.95H127.28V109.34H133.94V102.95Z" fill="white"/>
<path d="M133.94 128.51H127.28V134.9H133.94V128.51Z" fill="white"/>
<path d="M133.94 134.9H127.28V141.29H133.94V134.9Z" fill="white"/>
<path d="M133.94 173.24H127.28V179.63H133.94V173.24Z" fill="white"/>
<path d="M133.94 198.8H127.28V205.19H133.94V198.8Z" fill="white"/>
<path d="M133.94 205.19H127.28V211.58H133.94V205.19Z" fill="white"/>
<path d="M140.6 19.88H133.94V26.27H140.6V19.88Z" fill="white"/>
<path d="M140.6 26.27H133.94V32.66H140.6V26.27Z" fill="white"/>
<path d="M140.6 32.6599H133.94V39.0499H140.6V32.6599Z" fill="white"/>
<path d="M140.6 39.0499H133.94V45.4399H140.6V39.0499Z" fill="white"/>
<path d="M140.6 64.61H133.94V71H140.6V64.61Z" fill="white"/>
<path d="M140.6 96.5599H133.94V102.95H140.6V96.5599Z" fill="white"/>
<path d="M140.6 102.95H133.94V109.34H140.6V102.95Z" fill="white"/>
<path d="M140.6 115.73H133.94V122.12H140.6V115.73Z" fill="white"/>
<path d="M140.6 141.29H133.94V147.68H140.6V141.29Z" fill="white"/>
<path d="M140.6 147.68H133.94V154.07H140.6V147.68Z" fill="white"/>
<path d="M140.6 160.46H133.94V166.85H140.6V160.46Z" fill="white"/>
<path d="M140.6 205.19H133.94V211.58H140.6V205.19Z" fill="white"/>
<path d="M147.26 7.09998H140.6V13.49H147.26V7.09998Z" fill="white"/>
<path d="M147.26 13.49H140.6V19.88H147.26V13.49Z" fill="white"/>
<path d="M147.26 26.27H140.6V32.66H147.26V26.27Z" fill="white"/>
<path d="M147.26 51.83H140.6V58.22H147.26V51.83Z" fill="white"/>
<path d="M147.26 64.61H140.6V71H147.26V64.61Z" fill="white"/>
<path d="M147.26 71H140.6V77.39H147.26V71Z" fill="white"/>
<path d="M147.26 96.5599H140.6V102.95H147.26V96.5599Z" fill="white"/>
<path d="M147.26 109.34H140.6V115.73H147.26V109.34Z" fill="white"/>
<path d="M147.26 122.12H140.6V128.51H147.26V122.12Z" fill="white"/>
<path d="M147.26 128.51H140.6V134.9H147.26V128.51Z" fill="white"/>
<path d="M147.26 141.29H140.6V147.68H147.26V141.29Z" fill="white"/>
<path d="M147.26 160.46H140.6V166.85H147.26V160.46Z" fill="white"/>
<path d="M147.26 166.85H140.6V173.24H147.26V166.85Z" fill="white"/>
<path d="M147.26 192.41H140.6V198.8H147.26V192.41Z" fill="white"/>
<path d="M147.26 198.8H140.6V205.19H147.26V198.8Z" fill="white"/>
<path d="M147.26 205.19H140.6V211.58H147.26V205.19Z" fill="white"/>
<path d="M153.92 0.709961H147.26V7.09996H153.92V0.709961Z" fill="white"/>
<path d="M153.92 7.09998H147.26V13.49H153.92V7.09998Z" fill="white"/>
<path d="M153.92 19.88H147.26V26.27H153.92V19.88Z" fill="white"/>
<path d="M153.92 26.27H147.26V32.66H153.92V26.27Z" fill="white"/>
<path d="M153.92 39.0499H147.26V45.4399H153.92V39.0499Z" fill="white"/>
<path d="M153.92 45.4399H147.26V51.8299H153.92V45.4399Z" fill="white"/>
<path d="M153.92 64.61H147.26V71H153.92V64.61Z" fill="white"/>
<path d="M153.92 71H147.26V77.39H153.92V71Z" fill="white"/>
<path d="M153.92 77.39H147.26V83.78H153.92V77.39Z" fill="white"/>
<path d="M153.92 90.1699H147.26V96.5599H153.92V90.1699Z" fill="white"/>
<path d="M153.92 109.34H147.26V115.73H153.92V109.34Z" fill="white"/>
<path d="M153.92 128.51H147.26V134.9H153.92V128.51Z" fill="white"/>
<path d="M153.92 141.29H147.26V147.68H153.92V141.29Z" fill="white"/>
<path d="M153.92 166.85H147.26V173.24H153.92V166.85Z" fill="white"/>
<path d="M153.92 186.02H147.26V192.41H153.92V186.02Z" fill="white"/>
<path d="M153.92 192.41H147.26V198.8H153.92V192.41Z" fill="white"/>
<path d="M153.92 205.19H147.26V211.58H153.92V205.19Z" fill="white"/>
<path d="M160.58 7.09998H153.92V13.49H160.58V7.09998Z" fill="white"/>
<path d="M160.58 19.88H153.92V26.27H160.58V19.88Z" fill="white"/>
<path d="M160.58 26.27H153.92V32.66H160.58V26.27Z" fill="white"/>
<path d="M160.58 32.6599H153.92V39.0499H160.58V32.6599Z" fill="white"/>
<path d="M160.58 58.22H153.92V64.61H160.58V58.22Z" fill="white"/>
<path d="M160.58 71H153.92V77.39H160.58V71Z" fill="white"/>
<path d="M160.58 77.39H153.92V83.78H160.58V77.39Z" fill="white"/>
<path d="M160.58 96.5599H153.92V102.95H160.58V96.5599Z" fill="white"/>
<path d="M160.58 134.9H153.92V141.29H160.58V134.9Z" fill="white"/>
<path d="M160.58 154.07H153.92V160.46H160.58V154.07Z" fill="white"/>
<path d="M160.58 160.46H153.92V166.85H160.58V160.46Z" fill="white"/>
<path d="M160.58 173.24H153.92V179.63H160.58V173.24Z" fill="white"/>
<path d="M160.58 179.63H153.92V186.02H160.58V179.63Z" fill="white"/>
<path d="M160.58 186.02H153.92V192.41H160.58V186.02Z" fill="white"/>
<path d="M167.24 0.709961H160.58V7.09996H167.24V0.709961Z" fill="white"/>
<path d="M167.24 13.49H160.58V19.88H167.24V13.49Z" fill="white"/>
<path d="M167.24 19.88H160.58V26.27H167.24V19.88Z" fill="white"/>
<path d="M167.24 39.0499H160.58V45.4399H167.24V39.0499Z" fill="white"/>
<path d="M167.24 51.83H160.58V58.22H167.24V51.83Z" fill="white"/>
<path d="M167.24 58.22H160.58V64.61H167.24V58.22Z" fill="white"/>
<path d="M167.24 90.1699H160.58V96.5599H167.24V90.1699Z" fill="white"/>
<path d="M167.24 115.73H160.58V122.12H167.24V115.73Z" fill="white"/>
<path d="M167.24 122.12H160.58V128.51H167.24V122.12Z" fill="white"/>
<path d="M167.24 134.9H160.58V141.29H167.24V134.9Z" fill="white"/>
<path d="M167.24 154.07H160.58V160.46H167.24V154.07Z" fill="white"/>
<path d="M167.24 160.46H160.58V166.85H167.24V160.46Z" fill="white"/>
<path d="M167.24 166.85H160.58V173.24H167.24V166.85Z" fill="white"/>
<path d="M167.24 173.24H160.58V179.63H167.24V173.24Z" fill="white"/>
<path d="M167.24 179.63H160.58V186.02H167.24V179.63Z" fill="white"/>
<path d="M167.24 205.19H160.58V211.58H167.24V205.19Z" fill="white"/>
<path d="M173.9 51.83H167.24V58.22H173.9V51.83Z" fill="white"/>
<path d="M173.9 58.22H167.24V64.61H173.9V58.22Z" fill="white"/>
<path d="M173.9 64.61H167.24V71H173.9V64.61Z" fill="white"/>
<path d="M173.9 90.1699H167.24V96.5599H173.9V90.1699Z" fill="white"/>
<path d="M173.9 96.5599H167.24V102.95H173.9V96.5599Z" fill="white"/>
<path d="M173.9 102.95H167.24V109.34H173.9V102.95Z" fill="white"/>
<path d="M173.9 122.12H167.24V128.51H173.9V122.12Z" fill="white"/>
<path d="M173.9 141.29H167.24V147.68H173.9V141.29Z" fill="white"/>
<path d="M173.9 154.07H167.24V160.46H173.9V154.07Z" fill="white"/>
<path d="M173.9 179.63H167.24V186.02H173.9V179.63Z" fill="white"/>
<path d="M173.9 186.02H167.24V192.41H173.9V186.02Z" fill="white"/>
<path d="M180.56 51.83H173.9V58.22H180.56V51.83Z" fill="white"/>
<path d="M180.56 90.1699H173.9V96.5599H180.56V90.1699Z" fill="white"/>
<path d="M180.56 96.5599H173.9V102.95H180.56V96.5599Z" fill="white"/>
<path d="M180.56 102.95H173.9V109.34H180.56V102.95Z" fill="white"/>
<path d="M180.56 109.34H173.9V115.73H180.56V109.34Z" fill="white"/>
<path d="M180.56 115.73H173.9V122.12H180.56V115.73Z" fill="white"/>
<path d="M180.56 128.51H173.9V134.9H180.56V128.51Z" fill="white"/>
<path d="M180.56 134.9H173.9V141.29H180.56V134.9Z" fill="white"/>
<path d="M180.56 154.07H173.9V160.46H180.56V154.07Z" fill="white"/>
<path d="M180.56 166.85H173.9V173.24H180.56V166.85Z" fill="white"/>
<path d="M180.56 179.63H173.9V186.02H180.56V179.63Z" fill="white"/>
<path d="M180.56 186.02H173.9V192.41H180.56V186.02Z" fill="white"/>
<path d="M180.56 192.41H173.9V198.8H180.56V192.41Z" fill="white"/>
<path d="M180.56 198.8H173.9V205.19H180.56V198.8Z" fill="white"/>
<path d="M187.22 51.83H180.56V58.22H187.22V51.83Z" fill="white"/>
<path d="M187.22 64.61H180.56V71H187.22V64.61Z" fill="white"/>
<path d="M187.22 71H180.56V77.39H187.22V71Z" fill="white"/>
<path d="M187.22 83.7799H180.56V90.1699H187.22V83.7799Z" fill="white"/>
<path d="M187.22 96.5599H180.56V102.95H187.22V96.5599Z" fill="white"/>
<path d="M187.22 109.34H180.56V115.73H187.22V109.34Z" fill="white"/>
<path d="M187.22 115.73H180.56V122.12H187.22V115.73Z" fill="white"/>
<path d="M187.22 128.51H180.56V134.9H187.22V128.51Z" fill="white"/>
<path d="M187.22 154.07H180.56V160.46H187.22V154.07Z" fill="white"/>
<path d="M187.22 179.63H180.56V186.02H187.22V179.63Z" fill="white"/>
<path d="M187.22 205.19H180.56V211.58H187.22V205.19Z" fill="white"/>
<path d="M193.88 77.39H187.22V83.78H193.88V77.39Z" fill="white"/>
<path d="M193.88 83.7799H187.22V90.1699H193.88V83.7799Z" fill="white"/>
<path d="M193.88 90.1699H187.22V96.5599H193.88V90.1699Z" fill="white"/>
<path d="M193.88 96.5599H187.22V102.95H193.88V96.5599Z" fill="white"/>
<path d="M193.88 102.95H187.22V109.34H193.88V102.95Z" fill="white"/>
<path d="M193.88 141.29H187.22V147.68H193.88V141.29Z" fill="white"/>
<path d="M193.88 154.07H187.22V160.46H193.88V154.07Z" fill="white"/>
<path d="M193.88 160.46H187.22V166.85H193.88V160.46Z" fill="white"/>
<path d="M193.88 166.85H187.22V173.24H193.88V166.85Z" fill="white"/>
<path d="M193.88 173.24H187.22V179.63H193.88V173.24Z" fill="white"/>
<path d="M193.88 179.63H187.22V186.02H193.88V179.63Z" fill="white"/>
<path d="M193.88 186.02H187.22V192.41H193.88V186.02Z" fill="white"/>
<path d="M193.88 198.8H187.22V205.19H193.88V198.8Z" fill="white"/>
<path d="M193.88 205.19H187.22V211.58H193.88V205.19Z" fill="white"/>
<path d="M200.54 51.83H193.88V58.22H200.54V51.83Z" fill="white"/>
<path d="M200.54 64.61H193.88V71H200.54V64.61Z" fill="white"/>
<path d="M200.54 71H193.88V77.39H200.54V71Z" fill="white"/>
<path d="M200.54 90.1699H193.88V96.5599H200.54V90.1699Z" fill="white"/>
<path d="M200.54 115.73H193.88V122.12H200.54V115.73Z" fill="white"/>
<path d="M200.54 122.12H193.88V128.51H200.54V122.12Z" fill="white"/>
<path d="M200.54 128.51H193.88V134.9H200.54V128.51Z" fill="white"/>
<path d="M200.54 134.9H193.88V141.29H200.54V134.9Z" fill="white"/>
<path d="M200.54 147.68H193.88V154.07H200.54V147.68Z" fill="white"/>
<path d="M200.54 154.07H193.88V160.46H200.54V154.07Z" fill="white"/>
<path d="M200.54 166.85H193.88V173.24H200.54V166.85Z" fill="white"/>
<path d="M200.54 179.63H193.88V186.02H200.54V179.63Z" fill="white"/>
<path d="M200.54 192.41H193.88V198.8H200.54V192.41Z" fill="white"/>
<path d="M200.54 198.8H193.88V205.19H200.54V198.8Z" fill="white"/>
<path d="M207.2 58.22H200.54V64.61H207.2V58.22Z" fill="white"/>
<path d="M207.2 90.1699H200.54V96.5599H207.2V90.1699Z" fill="white"/>
<path d="M207.2 96.5599H200.54V102.95H207.2V96.5599Z" fill="white"/>
<path d="M207.2 102.95H200.54V109.34H207.2V102.95Z" fill="white"/>
<path d="M207.2 109.34H200.54V115.73H207.2V109.34Z" fill="white"/>
<path d="M207.2 115.73H200.54V122.12H207.2V115.73Z" fill="white"/>
<path d="M207.2 147.68H200.54V154.07H207.2V147.68Z" fill="white"/>
<path d="M207.2 179.63H200.54V186.02H207.2V179.63Z" fill="white"/>
<path d="M207.2 192.41H200.54V198.8H207.2V192.41Z" fill="white"/>
<path d="M207.2 205.19H200.54V211.58H207.2V205.19Z" fill="white"/>
<path d="M213.86 51.83H207.2V58.22H213.86V51.83Z" fill="white"/>
<path d="M213.86 58.22H207.2V64.61H213.86V58.22Z" fill="white"/>
<path d="M213.86 102.95H207.2V109.34H213.86V102.95Z" fill="white"/>
<path d="M213.86 109.34H207.2V115.73H213.86V109.34Z" fill="white"/>
<path d="M213.86 134.9H207.2V141.29H213.86V134.9Z" fill="white"/>
<path d="M213.86 147.68H207.2V154.07H213.86V147.68Z" fill="white"/>
<path d="M213.86 154.07H207.2V160.46H213.86V154.07Z" fill="white"/>
<path d="M213.86 160.46H207.2V166.85H213.86V160.46Z" fill="white"/>
<path d="M213.86 166.85H207.2V173.24H213.86V166.85Z" fill="white"/>
<path d="M220.52 58.22H213.86V64.61H220.52V58.22Z" fill="white"/>
<path d="M220.52 64.61H213.86V71H220.52V64.61Z" fill="white"/>
<path d="M220.52 71H213.86V77.39H220.52V71Z" fill="white"/>
<path d="M220.52 83.7799H213.86V90.1699H220.52V83.7799Z" fill="white"/>
<path d="M220.52 96.5599H213.86V102.95H220.52V96.5599Z" fill="white"/>
<path d="M220.52 115.73H213.86V122.12H220.52V115.73Z" fill="white"/>
<path d="M220.52 134.9H213.86V141.29H220.52V134.9Z" fill="white"/>
<path d="M220.52 141.29H213.86V147.68H220.52V141.29Z" fill="white"/>
<path d="M220.52 154.07H213.86V160.46H220.52V154.07Z" fill="white"/>
<path d="M220.52 160.46H213.86V166.85H220.52V160.46Z" fill="white"/>
<path d="M220.52 179.63H213.86V186.02H220.52V179.63Z" fill="white"/>
<path d="M220.52 198.8H213.86V205.19H220.52V198.8Z" fill="white"/>
<path fill-rule="evenodd" clip-rule="evenodd" d="M0.73999 0.709961V45.44H47.36V0.709961H0.73999ZM7.39999 7.09996H40.7V39.05H7.39999V7.09996Z" fill="white"/>
<path d="M20.72 13.49H14.06V19.88H20.72V13.49Z" fill="white"/>
<path d="M20.72 19.88H14.06V26.27H20.72V19.88Z" fill="white"/>
<path d="M20.72 26.27H14.06V32.66H20.72V26.27Z" fill="white"/>
<path d="M27.38 13.49H20.72V19.88H27.38V13.49Z" fill="white"/>
<path d="M27.38 19.88H20.72V26.27H27.38V19.88Z" fill="white"/>
<path d="M27.38 26.27H20.72V32.66H27.38V26.27Z" fill="white"/>
<path d="M34.04 13.49H27.38V19.88H34.04V13.49Z" fill="white"/>
<path d="M34.04 19.88H27.38V26.27H34.04V19.88Z" fill="white"/>
<path d="M34.04 26.27H27.38V32.66H34.04V26.27Z" fill="white"/>
<path fill-rule="evenodd" clip-rule="evenodd" d="M220.52 0.709961L173.9 0.709961V45.44H220.52V0.709961ZM213.86 7.09996V39.05H180.56V7.09996L213.86 7.09996Z" fill="white"/>
<path d="M193.88 13.49H187.22V19.88H193.88V13.49Z" fill="white"/>
<path d="M193.88 19.88H187.22V26.27H193.88V19.88Z" fill="white"/>
<path d="M193.88 26.27H187.22V32.66H193.88V26.27Z" fill="white"/>
<path d="M200.54 13.49H193.88V19.88H200.54V13.49Z" fill="white"/>
<path d="M200.54 19.88H193.88V26.27H200.54V19.88Z" fill="white"/>
<path d="M200.54 26.27H193.88V32.66H200.54V26.27Z" fill="white"/>
<path d="M207.2 13.49H200.54V19.88H207.2V13.49Z" fill="white"/>
<path d="M207.2 19.88H200.54V26.27H207.2V19.88Z" fill="white"/>
<path d="M207.2 26.27H200.54V32.66H207.2V26.27Z" fill="white"/>
<path fill-rule="evenodd" clip-rule="evenodd" d="M0.73999 211.58H47.36V166.85H0.73999L0.73999 211.58ZM7.39999 205.19L7.39999 173.24H40.7V205.19H7.39999Z" fill="white"/>
<path d="M20.72 179.63H14.06V186.02H20.72V179.63Z" fill="white"/>
<path d="M20.72 186.02H14.06V192.41H20.72V186.02Z" fill="white"/>
<path d="M20.72 192.41H14.06V198.8H20.72V192.41Z" fill="white"/>
<path d="M27.38 179.63H20.72V186.02H27.38V179.63Z" fill="white"/>
<path d="M27.38 186.02H20.72V192.41H27.38V186.02Z" fill="white"/>
<path d="M27.38 192.41H20.72V198.8H27.38V192.41Z" fill="white"/>
<path d="M34.04 179.63H27.38V186.02H34.04V179.63Z" fill="white"/>
<path d="M34.04 186.02H27.38V192.41H34.04V186.02Z" fill="white"/>
<path d="M34.04 192.41H27.38V198.8H34.04V192.41Z" fill="white"/>
</mask>
<g mask="url(#mask0_45_41)">
<path d="M222 0H0V213H222V0Z" fill="#09021C"/>
</g>
</g>
<defs>
<clipPath id="clip0_45_41">
<rect width="222" height="213" fill="white"/>
</clipPath>
</defs>
</svg>
